<?xml version="1.0" encoding="UTF-8" standalone="no"?>
<!-- Created with Inkscape (http://www.inkscape.org/) -->

<svg
   width="1080"
   height="1080"
   viewBox="0 0 285.75 285.75"
   version="1.1"
   id="svg5"
   inkscape:version="1.1.2 (b8e25be833, 2022-02-05)"
   sodipodi:docname="XO.svg"
   xmlns:inkscape="http://www.inkscape.org/namespaces/inkscape"
   xmlns:sodipodi="http://sodipodi.sourceforge.net/DTD/sodipodi-0.dtd"
   xmlns="http://www.w3.org/2000/svg"
   xmlns:svg="http://www.w3.org/2000/svg">
  <sodipodi:namedview
     id="namedview7"
     pagecolor="#ffffff"
     bordercolor="#666666"
     borderopacity="1.0"
     inkscape:pageshadow="2"
     inkscape:pageopacity="0.0"
     inkscape:pagecheckerboard="true"
     inkscape:document-units="px"
     showgrid="false"
     units="px"
     scale-x="1"
     inkscape:snap-intersection-paths="true"
     inkscape:object-paths="true"
     inkscape:snap-smooth-nodes="true"
     inkscape:zoom="0.74814813"
     inkscape:cx="407.00496"
     inkscape:cy="548.68813"
     inkscape:window-width="1920"
     inkscape:window-height="1001"
     inkscape:window-x="-9"
     inkscape:window-y="-9"
     inkscape:window-maximized="1"
     inkscape:current-layer="layer1" />
  <defs
     id="defs2" />
  <g
     inkscape:label="Layer 1"
     inkscape:groupmode="layer"
     id="layer1">
    <g
       id="g6707"
       transform="matrix(0.90502834,0,0,0.90502834,-6.3800506,-18.243648)">
      <path
         id="path1847"
         style="color:#000000;fill:#c10000;fill-opacity:1;stroke-width:1;stroke-linecap:round;stroke-linejoin:bevel;-inkscape-stroke:none;paint-order:markers stroke fill"
         d="M 279.26958,91.944083 C 270.66411,85.162214 257.6291,78.688754 241.30859,73.248585 212.11687,63.518014 172.44898,57.010331 128.27104,55.740093 V 45.150042 c 38.78497,1.082575 74.22855,6.098366 102.86843,13.965291 4.69336,1.289194 9.20401,2.654955 13.51671,4.092521 17.08655,5.695516 31.08627,12.481488 41.1639,20.42356 -2.8444,2.086819 -3.90583,10.647449 -6.5505,8.312669 z"
         sodipodi:nodetypes="csccsscc" />
      <circle
         style="fill:#000000;stroke-width:1.29646;stroke-linecap:round;stroke-linejoin:bevel;paint-order:markers stroke fill;stop-color:#000000"
         id="path843"
         cx="141.46039"
         cy="142.875"
         r="122.7169" />
      <path
         id="path947"
         style="color:#000000;fill:#ff0000;stroke-width:3.77953;stroke-linecap:round;stroke-linejoin:bevel;-inkscape-stroke:none;paint-order:markers stroke fill"
         d="m 1154.5137,116.54297 c -1.0873,-0.0556 -2.2428,0.40477 -3.4922,1.50781 -32.5246,25.63227 -81.7908,50.09889 -143.4746,70.66016 -40.12424,13.37473 -85.53969,25.11392 -135.05276,34.90039 -11.76122,2.32775 -23.77833,4.53231 -35.99219,6.63281 -2.25097,0.38632 -4.53888,0.75248 -6.80468,1.13086 -10.23029,1.7121 -20.6226,3.33386 -31.14454,4.88086 -2.64546,0.38792 -5.25275,0.79853 -7.91601,1.17578 -11.59045,1.6463 -23.377,3.17181 -35.29102,4.61133 -4.26597,0.51379 -8.58311,0.99187 -12.88867,1.47851 -8.42976,0.95596 -16.94746,1.8475 -25.52344,2.69727 -4.74067,0.46807 -9.4411,0.96727 -14.22461,1.40234 -11.09048,1.01239 -22.32285,1.90961 -33.63281,2.74024 -6.12589,0.4482 -12.30763,0.84641 -18.49414,1.24023 -6.9487,0.44399 -13.94662,0.83894 -20.96875,1.21289 -8.72733,0.46308 -17.49606,0.88114 -26.33008,1.23438 -27.16543,1.08971 -54.72944,1.75586 -82.77929,1.75586 -119.22342,0 -231.3938,-10.13427 -328.87305,-27.76367 a 463.81191,463.81191 0 0 0 -28.82422,35.27539 c 105.25562,20.71144 227.29311,32.49023 357.69727,32.49023 20.17129,0 40.07494,-0.35888 59.81445,-0.91211 v 0.0156 c 12.0156,-0.33539 23.92107,-0.79524 35.75976,-1.32813 6.1591,-0.27856 12.26714,-0.60025 18.375,-0.93164 10.15484,-0.5482 20.2334,-1.17027 30.24024,-1.86133 5.8554,-0.4064 11.68829,-0.82457 17.49023,-1.27929 11.26413,-0.87844 22.41159,-1.85556 33.46485,-2.91211 4.20248,-0.4036 8.40561,-0.80149 12.57617,-1.23047 13.41616,-1.37366 26.67586,-2.86553 39.74609,-4.4961 2.35355,-0.2948 4.66792,-0.61497 7.00977,-0.91797 13.60618,-1.75344 27.03391,-3.62604 40.22851,-5.65039 0.50685,-0.078 1.02503,-0.14815 1.53125,-0.22656 14.47717,-2.23512 28.65285,-4.65281 42.59571,-7.20312 0.82219,-0.15074 1.64066,-0.30328 2.46094,-0.45508 58.07428,-10.72349 111.39254,-24.08788 158.40232,-39.75781 64.5791,-21.52636 117.4914,-47.17413 155.5801,-77.19141 -9.4067,-6.90129 -13.6545,-32.53661 -21.2656,-32.92578 z"
         transform="scale(0.26458333)" />
      <path
         d="m 66.530952,94.250288 8.246252,14.272432 8.008375,-14.272432 H 98.405862 L 83.935293,116.769 99.793443,140.7546 H 83.618123 L 74.460037,125.80821 65.301934,140.7546 H 49.205813 L 65.301934,116.53113 50.6727,94.250288 Z"
         style="font-size:10.5833px;line-height:1.25;font-family:IRTitr;-inkscape-font-specification:IRTitr;fill:#ffffff;fill-opacity:1;stroke-width:2.02986"
         id="path5853" />
      <path
         d="m 152.82294,117.56192 q 0,-11.3783 6.34329,-17.721602 3.2113,-3.171648 7.61197,-4.757473 4.40066,-1.625465 10.06999,-1.625465 5.8279,0 10.30786,1.585824 4.51959,1.585825 7.57231,4.638536 3.09236,3.05271 4.67818,7.49302 1.62547,4.40067 1.62547,10.03035 -0.0793,12.01262 -6.06578,18.0784 -5.94684,6.06578 -17.563,6.26401 -7.81019,0 -13.00378,-2.49768 -5.15392,-2.49767 -8.40487,-7.88947 -1.62546,-2.73555 -2.41837,-6.10543 -0.75331,-3.40953 -0.75331,-7.49302 z m 14.431,0.0793 q 0,3.52846 0.67398,6.02613 0.67398,2.49768 1.90299,4.08351 1.26866,1.58582 3.05271,2.33909 1.8237,0.75331 4.0835,0.75331 4.63854,0 7.13621,-3.01308 2.53733,-3.01307 2.53733,-10.8629 0,-3.29059 -0.71364,-5.66932 -0.67399,-2.37874 -1.98228,-3.92492 -1.26867,-1.54618 -3.09236,-2.29945 -1.78405,-0.7533 -4.00421,-0.7533 -2.18052,0 -3.96457,0.7533 -1.74441,0.71364 -3.01306,2.33909 -1.22902,1.58583 -1.94263,4.12315 -0.67398,2.53732 -0.67398,6.10543 z"
         style="font-size:10.5833px;line-height:1.25;font-family:IRTitr;-inkscape-font-specification:IRTitr;fill:#ffffff;fill-opacity:1;stroke-width:2.02986"
         id="path5855" />
      <path
         style="fill:none;fill-opacity:1;stroke:#ffffff;stroke-width:6.76724;stroke-linecap:butt;stroke-linejoin:miter;stroke-miterlimit:4;stroke-dasharray:none;stroke-opacity:1"
         d="m 58.853671,179.35501 c 0,0 40.424117,94.08039 59.725979,27.19978 7.80866,-27.05685 12.79794,-9.94335 14.71086,-5.11683 4.2256,10.66166 48.74219,69.13617 64.98396,-29.18858"
         id="path6088"
         sodipodi:nodetypes="cssc" />
    </g>
    <g
       id="g13091"
       transform="translate(2.9044972)">
      <path
         d="m 152.44568,236.26961 h 0.19322 q 2.28012,0 3.8646,3.98053 3.98053,6.99493 3.98053,13.41016 0,6.53117 -4.86939,10.5117 -4.40563,3.90325 -10.8595,7.18814 -9.77744,4.59888 -11.70973,4.59888 -2.9371,-0.54104 -2.9371,-2.66657 v -0.77293 q 0,-2.31875 3.82594,-2.82115 5.91284,-1.89365 10.31847,-4.21241 4.63753,-2.35739 9.42963,-6.76304 1.77771,-2.04824 1.77771,-4.52158 v -0.0773 q 0,-4.40564 -5.75824,-13.8739 l -0.15456,-1.04345 q 0.46375,-2.93708 2.89845,-2.93708 z"
         style="font-size:50.8px;line-height:1.25;font-family:'IRDast Nevis';-inkscape-font-specification:'IRDast Nevis';stroke-width:0.412223"
         id="path13060" />
      <path
         d="m 128.35005,240.29087 q 3.16762,1.16884 3.09527,5.47046 -0.2308,1.4585 -0.65284,2.5857 -2.74239,7.54708 -13.56488,16.73001 -3.46129,2.91344 -11.4996,7.08104 -8.217619,4.23958 -10.224103,4.26208 l -0.549947,-0.18735 q -1.351169,-0.48205 -1.682293,-2.53126 -0.13134,-0.55529 0.143493,-1.28187 l 0.07728,-0.13928 q 0.756788,-2.07775 3.837256,-2.97273 3.487164,-1.66623 7.659644,-3.949 5.90376,-3.21921 8.59771,-5.65809 -4.32997,-3.40073 -2.66906,-7.95685 1.8856,-5.09604 10.77195,-10.63679 3.89314,-1.8375 6.66014,-0.81602 z m -10.27168,14.89179 q 1.1506,-0.41186 4.79602,-5.35645 l 1.50945,-2.79627 q -4.28716,2.41208 -6.92523,5.9862 -0.62407,1.43314 0.61976,2.16652 z"
         style="font-size:50.8px;line-height:1.25;font-family:'IRDast Nevis';-inkscape-font-specification:'IRDast Nevis';stroke-width:0.412223"
         id="path13062" />
      <path
         d="m 108.11814,241.8981 q 1.64249,0.44011 2.1256,2.36997 0.12121,0.59263 -0.0488,1.22723 l -0.0301,0.11202 q -0.26006,0.97056 -1.81005,2.27564 -2.98331,2.92149 -6.32259,5.82762 -2.250673,2.27758 -6.670531,5.33427 -8.120477,6.26608 -19.53344,13.77043 -5.02249,3.21528 -8.896348,5.57807 -1.848607,1.22506 -2.333885,1.09503 -0.507964,0.10392 -1.217218,-0.0862 -1.717141,-0.4601 -2.112927,-2.5666 -0.05662,-0.5353 0.05341,-0.94593 l 0.06001,-0.22397 q 0.360084,-1.34384 2.372654,-2.28493 0.03001,-0.11202 7.98901,-4.58089 8.435008,-4.90151 10.752278,-6.68114 6.430482,-4.4384 11.187743,-8.60494 6.070586,-5.33502 11.735904,-11.09868 1.24331,-0.90715 2.69915,-0.51706 z m 2.63976,-15.3764 q 2.72502,0.73018 3.66858,4.82388 l -0.20005,0.74659 q -0.4901,1.82912 -3.96513,1.65817 l -0.74657,-0.20005 q -2.83703,-0.76017 -2.27401,-5.25038 0.59013,-2.20242 3.51718,-1.77821 z"
         style="font-size:50.8px;line-height:1.25;font-family:'IRDast Nevis';-inkscape-font-specification:'IRDast Nevis';stroke-width:0.412223"
         id="path13064" />
    </g>
  </g>
</svg>
