<?xml version="1.0" encoding="UTF-8" standalone="no"?>
<!-- Created with Inkscape (http://www.inkscape.org/) -->

<svg
   width="1080"
   height="1080"
   viewBox="0 0 285.75 285.75"
   version="1.1"
   id="svg5"
   inkscape:version="1.1.2 (b8e25be833, 2022-02-05)"
   sodipodi:docname="logo4.svg"
   xmlns:inkscape="http://www.inkscape.org/namespaces/inkscape"
   xmlns:sodipodi="http://sodipodi.sourceforge.net/DTD/sodipodi-0.dtd"
   xmlns="http://www.w3.org/2000/svg"
   xmlns:svg="http://www.w3.org/2000/svg">
  <sodipodi:namedview
     id="namedview7"
     pagecolor="#ffffff"
     bordercolor="#666666"
     borderopacity="1.0"
     inkscape:pageshadow="2"
     inkscape:pageopacity="0.0"
     inkscape:pagecheckerboard="true"
     inkscape:document-units="px"
     showgrid="false"
     units="px"
     scale-x="1"
     inkscape:zoom="2.9925926"
     inkscape:cx="1075.4889"
     inkscape:cy="78.19307"
     inkscape:window-width="1920"
     inkscape:window-height="1001"
     inkscape:window-x="-9"
     inkscape:window-y="-9"
     inkscape:window-maximized="1"
     inkscape:current-layer="layer1" />
  <defs
     id="defs2">
    <inkscape:path-effect
       effect="spiro"
       id="path-effect860"
       is_visible="true"
       lpeversion="1" />
    <inkscape:path-effect
       effect="spiro"
       id="path-effect856"
       is_visible="true"
       lpeversion="1" />
  </defs>
  <g
     inkscape:label="Layer 1"
     inkscape:groupmode="layer"
     id="layer1">
    <rect
       style="fill:#d2f1ff;fill-opacity:1;stroke:none;stroke-width:6.39304;stroke-linecap:round;stroke-opacity:1;paint-order:markers stroke fill;stop-color:#000000"
       id="rect899"
       width="285.75"
       height="285.75"
       x="0"
       y="0"
       ry="6.3657184" />
    <path
       id="path1055"
       style="color:#000000;fill:#1d2499;stroke-width:6.61458333;stroke-miterlimit:4;stroke-dasharray:none;stroke:#1d2499;stroke-opacity:1;stroke-linecap:round;stroke-linejoin:miter;paint-order:markers stroke fill;fill-opacity:1"
       d="m 186.48626,10.584678 c -27.3179,-0.19069 -64.39814,19.85179 -89.877512,74.44155 -1.67431,3.58724 -3.24584,7.39903 -4.72022,11.39552 H 51.429679 v 14.706392 h 35.683099 c -7.07574,24.63191 -11.33355,53.71568 -13.96723,80.53571 H 39.715312 v 14.70639 h 32.127146 c -1.17998,14.98289 -1.82492,28.72174 -2.07,39.76757 -0.15093,6.80265 -0.15523,12.58393 -0.0402,17.07991 0.11501,4.496 0.12962,7.10279 0.83202,10.0752 l 14.31192,-3.38076 c 0.10153,0.42977 -0.33489,-2.90372 -0.44139,-7.0669 -0.10653,-4.16313 -0.10672,-9.76123 0.0402,-16.3819 0.24477,-11.03199 0.90541,-24.94606 2.1217,-40.09312 H 171.0656 c -1.17375,21.06134 -0.39453,43.44094 2.8886,68.79643 l 14.58386,-1.88904 c -3.2192,-24.86155 -3.98888,-46.5298 -2.82352,-66.90739 h 48.60578 v -14.70639 h -47.41663 c 2.81028,-26.79704 8.95719,-52.12005 17.1632,-80.53571 h 41.9678 V 96.421748 h -37.64014 c 0.29101,-0.97089 0.56574,-1.90815 0.86076,-2.88766 9.71559,-32.25852 12.70128,-50.89285 8.7817,-64.29068 -1.95979,-6.69891 -6.41102,-11.9498 -11.77853,-14.72362 -5.3675,-2.77383 -11.16242,-3.52159 -17.15937,-3.85468 -0.86019,-0.0478 -1.73166,-0.0743 -2.61287,-0.0804 z m -0.09,14.70926 c 0.64195,0.004 1.26989,0.0224 1.88425,0.0565 5.12491,0.28466 8.97684,1.07093 11.22511,2.23276 2.24825,1.16186 3.38216,2.25068 4.41862,5.79353 2.07294,7.08568 0.70041,24.53755 -8.75011,55.91589 -0.72601,2.41051 -1.41841,4.76014 -2.1217,7.12914 h -85.36888 c 0.73177,-1.7938 1.48187,-3.52313 2.25286,-5.175 23.75381,-50.89272 56.55928,-66.04808 76.45985,-65.95281 z m -83.86283,85.834202 h 86.24016 c -7.87279,27.76856 -13.81337,53.3467 -16.54947,80.53571 H 87.927568 c 2.77829,-27.42363 7.52097,-57.19094 14.605862,-80.53571 z" />
    <g
       id="g1053"
       transform="translate(-204.05632,266.07343)">
      <path
         style="fill:none;stroke:#000000;stroke-width:7.9375;stroke-linecap:butt;stroke-linejoin:miter;stroke-miterlimit:4;stroke-dasharray:none;stroke-opacity:1"
         d="m 128.76703,227.22595 c -1.29721,-5.4895 0.0774,-69.63788 13.7924,-99.02228 13.71495,-29.384397 33.36831,-38.55709 46.10207,-37.849792 12.00563,0.666853 17.6438,5.271234 7.29922,39.618062 -10.34458,34.34682 -16.37561,59.60014 -11.31684,98.66861"
         id="path1360"
         sodipodi:nodetypes="czszc" />
      <rect
         style="fill:#000000;stroke:none;stroke-width:10.6493;stroke-linecap:round;stroke-linejoin:round;stroke-miterlimit:4;stroke-dasharray:none;paint-order:fill markers stroke;stop-color:#000000"
         id="rect2951"
         width="105.03434"
         height="7.9375"
         x="114.57809"
         y="132.67548"
         rx="0" />
      <rect
         style="fill:#000000;stroke:none;stroke-width:10.6493;stroke-linecap:round;stroke-linejoin:round;stroke-miterlimit:4;stroke-dasharray:none;paint-order:fill markers stroke;stop-color:#000000"
         id="rect2953"
         width="105.03434"
         height="7.9375"
         x="108.25528"
         y="184.08054"
         rx="0" />
    </g>
    <path
       id="path6411"
       style="color:#000000;fill:#000000;stroke-width:1.52464;-inkscape-stroke:none"
       d="m 625.05999,316.67188 c -7.62349,0.15047 -14.92864,4.54312 -23.83262,10.67578 -9.4976,6.54154 -20.19962,15.63657 -30.94799,26.16869 -4.69517,4.60072 -9.38905,9.4766 -13.98252,14.51674 h -23.32209 v 8.06791 h 16.19255 c -13.59026,15.87623 -25.65163,32.94417 -32.99805,48.68397 -3.9497,8.46222 -7.18906,18.45222 -9.87057,29.20284 h -32.26532 v 12.10185 h 29.53531 c -3.08355,15.16964 -5.21433,31.24417 -6.70724,46.44717 h -27.51124 v 12.10186 h 26.43973 c -0.97099,12.32926 -1.50252,23.63518 -1.70419,32.72468 -0.12426,5.59788 -0.12777,10.35838 -0.0331,14.05817 0.0947,3.69973 0.10438,5.84091 0.68231,8.2869 l 11.77725,-2.78121 c 0.0836,0.35362 -0.27323,-2.38951 -0.36085,-5.81534 -0.0877,-3.42588 -0.0878,-8.0325 0.0331,-13.48066 0.20142,-9.07821 0.7426,-20.52806 1.74279,-32.99254 h 69.50846 c -0.9658,17.33111 -0.32304,35.74777 2.37861,56.61246 l 12.00338,-1.55453 c -2.64906,-20.4585 -3.28275,-38.28927 -2.32425,-55.05793 h 39.99681 v -12.10186 h -39.01904 c 1.64106,-15.65283 4.65905,-30.68301 8.6856,-46.44717 h 35.0166 v -12.10185 h -31.76975 c 1.99153,-7.15886 4.14021,-14.50331 6.45906,-22.20252 5.7558,-19.11084 12.89708,-38.53983 18.75394,-55.68429 h 9.96118 v -8.06791 h -7.2556 c 1.03421,-3.14539 2.0209,-6.21712 2.90806,-9.14182 3.11796,-10.27871 5.29143,-18.9651 5.39227,-26.23723 0.0505,-3.63604 -0.34227,-7.09528 -2.29274,-10.30312 -1.95048,-3.2078 -5.93495,-5.44087 -9.74057,-5.65225 -0.51164,-0.0284 -1.02105,-0.0368 -1.52928,-0.0268 z m 0.94624,12.07822 c 0.10383,0.20186 0.54656,1.42532 0.51449,3.73694 -0.066,4.7595 -1.87654,13.0172 -4.87146,22.89029 -1.19537,3.94069 -2.60138,8.22007 -4.09384,12.65576 h -44.63033 c 1.93787,-1.99854 3.88079,-3.96872 5.82323,-5.8721 10.3618,-10.15333 20.67787,-18.87627 29.34622,-24.8466 8.66833,-5.97038 16.30392,-8.61645 17.82503,-8.53197 0.1145,0.006 0.0329,-0.0251 0.0866,-0.0323 z m -60.65111,47.3509 h 49.44902 c -5.53043,15.99055 -12.07929,34.10352 -17.528,52.19476 -2.67342,8.87651 -5.14638,17.37528 -7.40451,25.69205 h -70.99678 c 2.37312,-9.09862 5.11393,-17.34653 8.25856,-24.08396 7.74969,-16.60375 22.3163,-36.28807 38.22171,-53.80285 z m -49.319,89.98866 h 70.6761 c -3.84319,15.5523 -6.73458,30.66861 -8.32239,46.44717 H 509.0224 c 1.55519,-15.35087 3.86338,-31.5779 7.01372,-46.44717 z" />
  </g>
</svg>
