<?xml version="1.0" encoding="UTF-8" standalone="no"?>
<!-- Created with Inkscape (http://www.inkscape.org/) -->

<svg
   width="1080"
   height="1080"
   viewBox="0 0 285.75 285.75"
   version="1.1"
   id="svg5"
   inkscape:version="1.1.2 (b8e25be833, 2022-02-05)"
   sodipodi:docname="XO.svg"
   xmlns:inkscape="http://www.inkscape.org/namespaces/inkscape"
   xmlns:sodipodi="http://sodipodi.sourceforge.net/DTD/sodipodi-0.dtd"
   xmlns="http://www.w3.org/2000/svg"
   xmlns:svg="http://www.w3.org/2000/svg">
  <sodipodi:namedview
     id="namedview7"
     pagecolor="#ffffff"
     bordercolor="#666666"
     borderopacity="1.0"
     inkscape:pageshadow="2"
     inkscape:pageopacity="0.0"
     inkscape:pagecheckerboard="true"
     inkscape:document-units="px"
     showgrid="false"
     units="px"
     scale-x="1"
     inkscape:snap-intersection-paths="true"
     inkscape:object-paths="true"
     inkscape:snap-smooth-nodes="true"
     inkscape:zoom="0.37407407"
     inkscape:cx="98.910893"
     inkscape:cy="453.11882"
     inkscape:window-width="1920"
     inkscape:window-height="1001"
     inkscape:window-x="-9"
     inkscape:window-y="-9"
     inkscape:window-maximized="1"
     inkscape:current-layer="layer1"
     inkscape:snap-nodes="false" />
  <defs
     id="defs2">
    <inkscape:path-effect
       effect="bend_path"
       id="path-effect6531"
       is_visible="true"
       lpeversion="1"
       bendpath="M 83.962395,170.99987 C 132.31302,229.63034 198.32651,184.76397 216.50277,160.9409"
       prop_scale="1"
       scale_y_rel="false"
       vertical="false"
       hide_knot="false"
       bendpath-nodetypes="cc" />
    <inkscape:path-effect
       effect="bounding_box"
       id="path-effect6529"
       is_visible="true"
       lpeversion="1"
       linkedpath=""
       visualbounds="false" />
  </defs>
  <g
     inkscape:label="Layer 1"
     inkscape:groupmode="layer"
     id="layer1">
    <g
       id="g13091"
       transform="translate(2.9044972)" />
    <g
       id="g12218"
       transform="translate(0,31.812721)">
      <path
         id="path1847"
         style="color:#000000;fill:#c10000;fill-opacity:1;stroke-width:0.905028;stroke-linecap:round;stroke-linejoin:bevel;-inkscape-stroke:none;paint-order:markers stroke fill"
         d="M 246.36683,64.968353 C 238.57864,58.830569 226.78159,52.971904 212.01106,48.048397 185.59173,39.241955 149.69116,33.352317 109.70888,32.202716 V 22.61842 c 35.10149,0.979761 67.17894,5.519194 93.09884,12.638984 4.24762,1.166757 8.32989,2.402809 12.23301,3.703847 15.46381,5.154604 28.13395,11.296101 37.25449,18.483901 -2.57426,1.88863 -3.53488,9.636243 -5.92839,7.523201 z"
         sodipodi:nodetypes="csccsscc" />
      <circle
         style="fill:#000000;stroke-width:1.17333;stroke-linecap:round;stroke-linejoin:bevel;paint-order:markers stroke fill;stop-color:#000000"
         id="path843"
         cx="121.64561"
         cy="111.06228"
         r="111.06228" />
      <path
         id="path947"
         style="color:#000000;fill:#ff0000;stroke-width:0.905029;stroke-linecap:round;stroke-linejoin:bevel;-inkscape-stroke:none;paint-order:markers stroke fill"
         d="m 270.0745,9.6631967 c -0.26036,-0.013314 -0.53705,0.096924 -0.83623,0.3610533 -7.78819,6.137786 -19.58524,11.99645 -34.35576,16.919958 -9.60797,3.202651 -20.48295,6.013664 -32.33912,8.357087 -2.81629,0.557392 -5.69385,1.085286 -8.61852,1.588262 -0.53901,0.09251 -1.08686,0.180185 -1.62942,0.27079 -2.4497,0.409972 -4.93819,0.798311 -7.45773,1.168749 -0.63347,0.09289 -1.2578,0.191212 -1.89553,0.281547 -2.7754,0.394215 -5.59775,0.759507 -8.45063,1.104208 -1.02151,0.123029 -2.05527,0.237508 -3.08626,0.354037 -2.01855,0.22891 -4.05816,0.442394 -6.11172,0.645876 -1.13518,0.112082 -2.26073,0.231618 -3.40616,0.335798 -2.65568,0.242422 -5.34533,0.457266 -8.05356,0.656165 -1.46688,0.107324 -2.94713,0.202677 -4.42852,0.29698 -1.66391,0.106316 -3.3396,0.200888 -5.02108,0.290433 -2.08981,0.110887 -4.18953,0.210994 -6.30488,0.295579 -6.50491,0.260937 -13.10527,0.42045 -19.82195,0.42045 -28.548696,0 -55.408501,-2.426706 -78.750434,-6.648161 a 111.06227,111.06227 0 0 0 -6.902116,8.446883 c 25.204028,4.959466 54.426565,7.779961 85.65255,7.779961 4.83012,0 9.59616,-0.08594 14.32289,-0.218409 v 0.0037 c 2.8772,-0.08031 5.72803,-0.190424 8.56287,-0.318028 1.47483,-0.0667 2.93743,-0.143733 4.39999,-0.223086 2.43163,-0.13127 4.845,-0.280228 7.24119,-0.445706 1.40211,-0.09731 2.79882,-0.197447 4.18813,-0.306333 2.69726,-0.210347 5.36658,-0.444323 8.01334,-0.69732 1.00631,-0.09664 2.01277,-0.191921 3.01143,-0.294643 3.21257,-0.32893 6.38768,-0.686166 9.51742,-1.076615 0.56357,-0.07059 1.11776,-0.147258 1.67853,-0.219813 3.25807,-0.419871 6.47341,-0.868275 9.63293,-1.353017 0.12137,-0.01868 0.24545,-0.03547 0.36667,-0.05425 3.46663,-0.535211 6.86108,-1.11414 10.19977,-1.724826 0.19688,-0.03609 0.39286,-0.07262 0.58928,-0.108971 13.90621,-2.567798 26.67355,-5.767973 37.9303,-9.520223 15.46381,-5.154603 28.13395,-11.2961 37.25449,-18.4839 -2.25248,-1.652552 -3.26964,-7.7910677 -5.09216,-7.8842565 z" />
      <path
         id="path6497"
         style="font-size:59.3104px;line-height:1.25;fill:#ffffff;stroke-width:0.809686"
         d="m 197.02025,161.27447 c 0.37923,-0.28486 0.74096,-0.55471 1.08727,-0.80999 0,0 0,0 0,0 1.8492,-1.38021 3.22701,-2.2744 4.21795,-2.67718 1.06715,-0.44038 1.7756,-0.55109 2.14725,-0.29958 0.19948,0.13501 0.32945,0.30241 0.38909,0.50243 0.22768,0.84488 -0.28031,2.60918 -1.83065,5.25681 -0.30178,0.5078 -0.62552,0.99476 -0.96919,1.45964 0,0 0,0 0,0 -0.01,0.0131 -0.0195,0.0263 -0.0293,0.0394 -0.89722,1.2026 -2.09297,2.544 -3.60483,3.9789 0.39828,0.34775 0.79742,0.69465 1.19742,1.0407 1.28635,-1.22164 2.45972,-2.52738 3.5105,-3.9071 0.0727,-0.0957 0.14479,-0.19168 0.21627,-0.28792 0.48879,-0.65812 0.95618,-1.33714 1.39801,-2.0356 2.51677,-3.99066 3.23789,-6.87782 2.84947,-8.57499 -0.14329,-0.67481 -0.47464,-1.14593 -0.96478,-1.42767 -0.52422,-0.30138 -1.4149,-0.094 -2.7314,0.54421 -1.06879,0.5092 -2.25692,1.35982 -3.65082,2.56748 -0.74659,1.16151 -1.55739,2.3374 -2.41771,3.5279 -0.26794,0.36878 -0.53948,0.7363 -0.81454,1.10256 z M 90.109422,187.58374 c -0.221795,0.37137 -0.442707,0.74336 -0.662729,1.11597 1.341735,0.84716 2.702936,1.65958 4.082473,2.4344 0.200482,-0.38335 0.401934,-0.76607 0.604352,-1.14817 -1.359293,-0.76415 -2.701035,-1.56584 -4.024096,-2.4022 z m 6.765746,3.87959 c -0.188622,0.38918 -0.376225,0.77899 -0.562802,1.16942 0.901634,0.46474 1.810526,0.91317 2.726375,1.34452 0.511115,0.24017 1.024249,0.47442 1.539249,0.70271 0.16403,-0.40072 0.3292,-0.80085 0.49549,-1.20037 -0.43575,-0.19338 -0.87017,-0.39111 -1.303166,-0.59316 -0.972853,-0.45482 -1.938027,-0.92951 -2.895146,-1.42312 z m 67.745032,-1.00336 c 0.38925,0.74941 0.78182,1.49739 1.17768,2.24393 0.74118,1.3978 -0.0329,2.78685 -2.51248,4.00927 -0.54934,0.26989 -1.08709,0.48225 -1.61007,0.63768 -1.29759,0.38559 -2.50249,0.41957 -3.58084,0.11576 -0.44933,-0.1244 -0.89598,-0.7339 -1.33562,-1.82907 -1.59839,0.65875 -3.22413,1.27061 -4.87611,1.82994 0.35139,1.05955 0.29304,1.98469 -0.21129,2.77129 -0.60043,0.93271 -1.94497,1.73186 -4.05766,2.28386 -2.01578,0.52669 -3.54305,0.55106 -4.50689,0.1623 -0.25967,-0.10296 -0.48694,-0.2063 -0.68175,-0.30897 -0.54408,-0.28663 -0.8373,-0.56876 -0.88746,-0.83477 -0.0833,-0.44156 -0.16511,-0.88328 -0.24557,-1.32514 -1.75604,0.31706 -3.53529,0.56878 -5.33289,0.75112 0.059,0.54989 0.12008,1.09973 0.18338,1.64951 0.066,0.5727 -0.66988,1.18368 -2.27411,1.75462 -0.87144,0.31014 -2.36625,0.53141 -4.42958,0.54273 -0.36636,0.002 -0.73324,0.001 -1.10058,-0.002 -0.62995,-0.006 -1.26128,-0.0208 -1.89383,-0.0438 -1.32842,-0.0484 -2.66043,-0.28731 -3.97094,-0.71632 -0.68839,-0.22595 -1.2013,-0.54243 -1.53498,-0.93681 -0.37216,-0.4408 -0.52153,-0.9782 -0.45552,-1.60721 0.0541,-0.51647 -0.0885,-1.01358 -0.41731,-1.49472 -1.84415,-0.25296 -3.68745,-0.58411 -5.524,-0.99118 0.51609,0.43898 0.74822,0.82913 0.68344,1.18156 -0.12336,0.67144 -0.81095,1.04366 -2.08939,1.05285 -2.63788,0.0223 -6.15082,-0.42777 -10.30888,-1.66276 -1.9008,-0.56564 -3.95108,-1.30486 -6.112235,-2.25069 -2.355894,-1.03468 -4.845151,-2.30219 -7.428327,-3.83539 -2.856127,-1.70296 -5.168478,-3.39164 -6.912681,-4.87973 -3.426747,-2.92821 -4.7634,-4.82722 -4.328656,-5.40466 0.474784,-0.63061 1.416198,-0.70825 2.825439,-0.29177 -1.541205,-1.20964 -3.049169,-2.46225 -4.521808,-3.75254 -1.359476,-0.4854 -2.285937,-0.44091 -2.782876,0.18814 -0.96214,1.18616 0.918687,4.57421 6.5,9.43481 2.076376,1.80778 5.023503,4.00763 8.788871,6.23165 2.131125,1.25876 4.466707,2.47795 6.99332,3.60182 2.321056,1.02836 4.804483,1.96199 7.436523,2.75904 4.95021,1.49409 9.25156,1.98031 12.61465,1.85409 0.44179,0.46552 1.49596,1.1136 3.1635,1.83216 0.37056,0.15869 0.77463,0.30587 1.21149,0.43975 0,0 0,0 0,0 1.31437,0.3993 2.92986,0.67872 4.80851,0.78082 1.10077,0.0598 2.19817,0.0944 3.29138,0.10444 0.96449,0.009 1.92571,-0.001 2.8831,-0.0303 2.10448,-0.0635 3.94308,-0.34197 5.4855,-0.77147 1.13891,-0.31185 2.11814,-0.71007 2.93494,-1.17474 0.79656,0.25709 1.74056,0.40678 2.82056,0.4329 0.14474,0.003 0.29191,0.005 0.44147,0.004 1.51729,-0.004 3.27088,-0.24145 5.20956,-0.75039 1.28637,-0.3377 2.56762,-0.77975 3.83445,-1.32587 1.79025,-0.76622 2.9573,-1.77578 3.51949,-2.94329 0.60245,0.58653 2.25991,0.58229 4.89398,-0.18383 0.58191,-0.16752 1.17476,-0.37038 1.77671,-0.60897 0.49274,-0.19547 0.99162,-0.41468 1.49557,-0.65778 0.62162,-0.3 1.24498,-0.63802 1.86808,-1.0139 1.71895,-1.03158 3.06899,-2.16296 4.05416,-3.3427 1.2112,-1.45164 1.47119,-2.68357 0.88573,-3.66006 -0.5054,-0.84298 -1.00663,-1.688 -1.50364,-2.53504 -1.42382,0.87524 -2.8749,1.71513 -4.35351,2.51658 z m 22.59178,-14.43995 c 1.22092,-0.0771 2.08279,0.13378 2.57838,0.66273 0.28329,0.30221 0.47341,0.63843 0.56855,1.01028 0.3444,1.29705 -0.65152,3.72394 -3.30763,7.03578 -2.45818,3.06052 -6.15829,6.48382 -11.17449,9.73021 0.29137,0.44246 0.58389,0.88432 0.87755,1.32557 5.41241,-3.5032 9.85936,-7.58056 13.3615,-11.88884 1.57661,-1.94062 2.67322,-3.69922 3.33049,-5.20275 0.83707,-1.91857 0.97625,-3.44992 0.49929,-4.58234 -0.15297,-0.3566 -0.39789,-0.69967 -0.73357,-1.03071 -0.5409,-0.53329 -1.36088,-0.70763 -2.45866,-0.54833 -0.3117,0.32151 -0.62579,0.64169 -0.94222,0.9605 -0.85217,0.85355 -1.71854,1.69658 -2.59919,2.5279 z"
         inkscape:path-effect="#path-effect6531"
         inkscape:original-d="m 233.28703,157.60272 c 3.43313,0.27582 5.83951,0.67496 7.21911,1.19651 1.25294,0.46692 1.91684,0.92174 1.99117,1.3646 0.04,0.23846 -0.004,0.44718 -0.13021,0.62606 -0.5597,0.74774 -2.45343,1.53534 -5.68173,2.36312 -0.63881,0.15972 -1.27246,0.29242 -1.90081,0.39786 -1.59939,0.26839 -3.51383,0.46702 -5.7435,0.59602 l 0.26297,1.56709 c 1.99737,-0.11335 3.96689,-0.33297 5.90899,-0.65893 0.85685,-0.14376 1.71997,-0.309 2.58918,-0.49573 4.94956,-1.06992 8.09346,-2.28345 9.43187,-3.64052 0.53785,-0.52807 0.75996,-1.07318 0.66562,-1.63528 -0.1,-0.59617 -1.00344,-1.19475 -2.70959,-1.79577 -1.37481,-0.49314 -3.18115,-0.81742 -5.41942,-0.97303 z m -123.39664,21.14475 0.21437,1.27745 4.28402,-0.71889 -0.21436,-1.27745 z m 7.14004,-1.19816 0.21437,1.27745 4.28401,-0.71888 -0.21437,-1.27745 z m 69.27423,-11.18696 0.42018,2.50384 c 0.26487,1.5784 -0.95371,2.60007 -3.65556,3.0651 -2.09345,0.3574 -3.83043,0.15535 -5.21101,-0.60536 -0.40939,-0.22318 -0.71186,-0.91662 -0.90719,-2.08056 l -5.25488,0.88183 c 0.18484,1.10147 -0.026,2.00371 -0.63253,2.70673 -0.72155,0.83326 -2.11986,1.42399 -4.19528,1.77226 -1.98022,0.3323 -3.42683,0.28609 -4.33991,-0.13864 -0.93304,-0.42718 -1.43015,-0.82248 -1.49114,-1.18584 l -0.22294,-1.32851 -5.25539,0.88189 0.2744,1.63519 c 0.0953,0.56778 -0.58045,1.20647 -2.02747,1.91629 -0.79587,0.39041 -2.13634,0.74381 -4.02135,1.06012 l -0.99942,0.16774 -1.7139,0.28762 c -1.19955,0.20129 -2.42425,0.25208 -3.67427,0.153 -1.38904,-0.11129 -2.18272,-0.75743 -2.3809,-1.93841 -0.0858,-0.51098 -0.34536,-0.94905 -0.77858,-1.31416 l -5.25488,0.8818 c 0.60457,0.21962 0.93632,0.50547 0.99537,0.85748 0.11339,0.67566 -0.36663,1.2553 -1.44048,1.73906 -2.23813,1.01188 -5.22445,2.00045 -8.95826,2.9656 -3.5653,0.91935 -7.82197,1.79998 -12.77062,2.64207 -2.87512,0.48246 -5.31921,0.79345 -7.33182,0.93268 -3.92907,0.26827 -5.952954,0.0474 -6.072052,-0.66229 -0.129579,-0.77216 0.379314,-1.52896 1.527392,-2.27035 l -5.254884,0.88181 c -1.130941,0.72685 -1.621339,1.48054 -1.470819,2.26086 0.270574,1.49571 3.586323,2.00464 9.946893,1.52688 2.39723,-0.18043 5.4617,-0.58385 9.19364,-1.21011 4.01756,-0.67417 8.46424,-1.58959 13.3405,-2.74645 4.38594,-1.04539 7.99265,-2.18774 10.81911,-3.42676 0.51986,0.29804 1.58081,0.55504 3.18314,0.77067 1.42143,0.1876 3.23663,0.0961 5.44534,-0.27456 l 2.91309,-0.48886 2.5701,-0.43128 c 1.88503,-0.31631 3.52954,-0.72657 4.93279,-1.23056 1.03483,-0.3663 1.93345,-0.78564 2.69599,-1.25803 0.85021,0.28348 1.86551,0.44296 3.04607,0.47837 1.41761,0.0482 3.05938,-0.0843 4.92534,-0.39743 1.23765,-0.20769 2.49214,-0.48826 3.76403,-0.8418 1.79646,-0.49409 3.07738,-1.26073 3.84268,-2.2998 0.4685,0.69193 2.03638,0.99217 4.70306,0.90076 1.07105,-0.0337 2.20638,-0.15164 3.40595,-0.35265 0.66643,-0.11178 1.34759,-0.25249 2.04353,-0.4218 1.91926,-0.46218 3.54895,-1.07409 4.88934,-1.83608 1.64407,-0.93553 2.37141,-1.96826 2.1818,-3.09813 l -0.48875,-2.91263 z m 28.44694,-3.02239 c 1.13873,0.6028 1.76803,1.26197 1.88807,1.97735 0.0687,0.40879 0.0355,0.79373 -0.0992,1.15502 -0.46825,1.2928 -2.71234,2.67923 -6.73169,4.15929 -3.74328,1.37535 -8.50908,2.54881 -14.29742,3.52015 l 0.26295,1.56694 c 6.13105,-1.02884 11.82838,-2.42558 17.09204,-4.19035 5.39311,-1.80983 8.36092,-3.78186 8.90331,-5.91602 0.0932,-0.37759 0.10119,-0.79923 0.0231,-1.2648 -0.12583,-0.74945 -0.72083,-1.37924 -1.78529,-1.88945 z" />
      <path
         id="path7202"
         style="font-size:41.4247px;line-height:1.25;fill:#ffffff;stroke-width:0.655004"
         d="m 135.78703,130.69533 c -0.40456,0.0135 -0.80108,0.0679 -1.18946,0.16226 v 3.72174 c 0.86846,-0.0809 1.52378,-0.0742 1.9661,0.0202 0.97096,0.21576 1.68579,0.45176 2.1443,0.70797 0.5556,0.31015 1.0572,0.62003 1.50491,0.93018 -0.54481,0.47196 -1.07062,1.28772 -1.57768,2.44739 -0.62572,1.42937 -1.21906,2.53501 -1.78005,3.31711 -0.69585,0.9709 -1.65615,1.45676 -2.88063,1.45676 h -0.8091 v 3.72174 h 1.03566 c 0.87926,0 1.91488,-0.53974 3.10699,-1.61851 0.40456,-0.36408 0.99811,-1.41585 1.78026,-3.15536 0.22117,-0.49893 0.51773,-1.05816 0.88993,-1.67845 0.31825,1.30801 0.58526,2.32591 0.80103,3.05408 0.67967,2.26541 1.58332,3.39824 2.71071,3.39824 h 0.37209 0.32372 0.40455 c 0.84689,0 1.46444,-0.57976 1.85282,-1.73943 0.49627,-1.48331 0.7444,-3.48576 0.7444,-6.00739 v -4.38939 h -1.48879 v 4.38939 c 0,1.42937 -0.13218,2.47395 -0.39649,3.1347 -0.23735,0.59332 -0.62298,0.89038 -1.157,0.89038 h -0.28321 -0.21044 c -0.61494,0 -1.20273,-0.80242 -1.76373,-2.40709 -0.16182,-0.45847 -0.37773,-1.21369 -0.64744,-2.26549 0.39378,-0.55287 0.76607,-0.96435 1.1167,-1.23403 v -3.11454 c -1.18672,-1.32149 -2.47601,-2.33324 -3.86771,-3.03444 -0.9278,-0.47197 -1.82858,-0.70797 -2.70244,-0.70797 z m 1.78812,19.51922 v 3.03392 h 1.21365 v -3.03392 z m 8.26131,0 v 3.03392 h 1.21365 v -3.03392 z" />
      <path
         d="m 124.85219,139.6763 v -23.96888 h 3.72175 v 23.72616 q 0,2.14405 0.99112,3.13517 0.88998,0.88998 2.89245,0.88998 h 1.51701 v 3.72175 h -2.62949 q -3.11495,0 -4.7331,-1.86087 -1.75974,-2.04292 -1.75974,-5.64331 z"
         id="path7206"
         style="font-size:41.4247px;line-height:1.25;fill:#ffffff;stroke-width:1.03562" />
      <path
         d="m 90.955235,93.669751 q 0.03358,6.177712 -4.23039,7.990729 -2.350217,0.94009 -9.434442,0.94009 L 62.14829,102.46627 V 62.445441 h 20.31259 q 8.494355,0 8.494355,8.830098 z M 82.46088,90.446595 V 72.920687 q 0,-1.880167 -3.055282,-1.880167 H 70.67622 v 22.763531 h 8.729378 q 1.947323,0 2.484515,-0.805789 0.570767,-0.70507 0.570767,-2.551667 z"
         style="font-size:60.0772px;line-height:1.25;font-family:NPIParisa;-inkscape-font-specification:NPIParisa;fill:#ffffff;fill-opacity:1;stroke-width:1.71902"
         id="path11780" />
      <path
         d="m 199.18234,93.535451 q 0,4.129664 -2.1152,6.479879 -2.21591,2.45094 -6.24486,2.45094 H 170.7446 V 62.445441 h 20.48057 q 5.47265,0 6.9835,3.793914 0.80579,1.980897 0.80579,8.527929 0,5.774823 -3.42459,7.554271 3.59247,1.645158 3.59247,7.151381 z m -8.49436,-17.593059 v -2.685955 q 0,-0.90652 -0.60435,-1.544428 -0.57077,-0.671489 -1.41013,-0.671489 h -9.40093 v 7.08422 h 9.40093 q 2.01448,0 2.01448,-2.182348 z m -0.16788,15.679311 v -2.551667 q 0,-2.417367 -2.04805,-2.417367 h -9.19948 v 7.151382 h 9.33378 q 1.91375,0 1.91375,-2.182348 z"
         style="font-size:60.0772px;line-height:1.25;font-family:NPIParisa;-inkscape-font-specification:NPIParisa;fill:#ffffff;fill-opacity:1;stroke-width:1.71902"
         id="path11782" />
    </g>
  </g>
</svg>
