<?xml version="1.0" encoding="UTF-8" standalone="no"?>
<!-- Created with Inkscape (http://www.inkscape.org/) -->

<svg
   width="1080"
   height="1080"
   viewBox="0 0 285.75 285.75"
   version="1.1"
   id="svg5"
   inkscape:version="1.1.2 (b8e25be833, 2022-02-05)"
   sodipodi:docname="logo.svg"
   xmlns:inkscape="http://www.inkscape.org/namespaces/inkscape"
   xmlns:sodipodi="http://sodipodi.sourceforge.net/DTD/sodipodi-0.dtd"
   xmlns="http://www.w3.org/2000/svg"
   xmlns:svg="http://www.w3.org/2000/svg">
  <sodipodi:namedview
     id="namedview7"
     pagecolor="#ffffff"
     bordercolor="#666666"
     borderopacity="1.0"
     inkscape:pageshadow="2"
     inkscape:pageopacity="0.0"
     inkscape:pagecheckerboard="true"
     inkscape:document-units="px"
     showgrid="false"
     units="px"
     scale-x="1"
     inkscape:zoom="0.26451031"
     inkscape:cx="500.92565"
     inkscape:cy="1117.1587"
     inkscape:window-width="1920"
     inkscape:window-height="1001"
     inkscape:window-x="-9"
     inkscape:window-y="-9"
     inkscape:window-maximized="1"
     inkscape:current-layer="layer1" />
  <defs
     id="defs2">
    <inkscape:path-effect
       effect="spiro"
       id="path-effect860"
       is_visible="true"
       lpeversion="1" />
    <inkscape:path-effect
       effect="spiro"
       id="path-effect856"
       is_visible="true"
       lpeversion="1" />
  </defs>
  <g
     inkscape:label="Layer 1"
     inkscape:groupmode="layer"
     id="layer1">
    <g
       id="g6409"
       transform="translate(-241.06653,326.08999)">
      <path
         style="fill:none;stroke:#000000;stroke-width:7.9375;stroke-linecap:butt;stroke-linejoin:miter;stroke-miterlimit:4;stroke-dasharray:none;stroke-opacity:1"
         d="m 82.754329,230.22679 c -1.297206,-5.4895 0.07745,-69.63788 13.792396,-99.02228 13.714955,-29.3844 55.874525,-69.315582 68.608285,-68.608284 12.00563,0.666853 -4.86241,36.029723 -15.20699,70.376554 -10.34458,34.34682 -16.37561,59.60014 -11.31684,98.66861"
         id="path1360"
         sodipodi:nodetypes="czszc" />
      <rect
         style="fill:#000000;stroke:none;stroke-width:7.02744;stroke-linecap:round;stroke-linejoin:round;stroke-miterlimit:4;stroke-dasharray:none;paint-order:fill markers stroke;stop-color:#000000"
         id="rect2851"
         width="68.608292"
         height="5.2916665"
         x="103.9734"
         y="92.30291"
         rx="0" />
      <rect
         style="fill:#000000;stroke:none;stroke-width:10.6493;stroke-linecap:round;stroke-linejoin:round;stroke-miterlimit:4;stroke-dasharray:none;paint-order:fill markers stroke;stop-color:#000000"
         id="rect2951"
         width="105.03434"
         height="7.9375"
         x="65.314491"
         y="148.6799"
         rx="0" />
      <rect
         style="fill:#000000;stroke:none;stroke-width:10.6493;stroke-linecap:round;stroke-linejoin:round;stroke-miterlimit:4;stroke-dasharray:none;paint-order:fill markers stroke;stop-color:#000000"
         id="rect2953"
         width="105.03434"
         height="7.9375"
         x="62.242577"
         y="187.08138"
         rx="0" />
    </g>
    <path
       id="path6411"
       style="color:#000000;fill:#e0e9ea;stroke-width:1.52464;-inkscape-stroke:none;fill-opacity:1"
       d="m 213.94653,10.587406 c -7.62349,0.150467 -14.92864,4.543119 -23.83262,10.675775 -9.4976,6.54154 -20.19962,15.63657 -30.94799,26.168696 -4.69517,4.60072 -9.38905,9.4766 -13.98252,14.51674 h -23.32209 v 8.06791 h 16.19255 c -13.59026,15.87623 -25.65163,32.944163 -32.99805,48.683963 -3.9497,8.46222 -7.189064,18.45222 -9.870574,29.20284 H 62.919912 v 12.10185 h 29.535314 c -3.08355,15.16964 -5.21433,31.24417 -6.70724,46.44717 H 58.236747 v 12.10186 h 26.439729 c -0.97099,12.32926 -1.50252,23.63518 -1.704192,32.72468 -0.124258,5.59788 -0.127765,10.35838 -0.0331,14.05817 0.09468,3.69973 0.104382,5.84091 0.682312,8.2869 l 11.77725,-2.78121 c 0.0836,0.35362 -0.27323,-2.38951 -0.36085,-5.81534 -0.0877,-3.42588 -0.0878,-8.0325 0.0331,-13.48066 0.20142,-9.07821 0.7426,-20.52806 1.74279,-32.99254 h 69.508464 c -0.9658,17.33111 -0.32304,35.74777 2.37861,56.61246 l 12.00338,-1.55453 c -2.64906,-20.4585 -3.28275,-38.28927 -2.32425,-55.05793 h 39.99681 v -12.10186 h -39.01904 c 1.64106,-15.65283 4.65905,-30.68301 8.6856,-46.44717 h 35.0166 v -12.10185 h -31.76975 c 1.99153,-7.15886 4.14021,-14.50331 6.45906,-22.20252 5.7558,-19.11084 12.89708,-38.539823 18.75394,-55.684283 h 9.96118 v -8.06791 h -7.2556 c 1.03421,-3.14539 2.0209,-6.21712 2.90806,-9.14182 3.11796,-10.278713 5.29143,-18.965105 5.39227,-26.237232 0.0505,-3.636044 -0.34227,-7.09528 -2.29274,-10.30312 -1.95048,-3.207799 -5.93495,-5.440875 -9.74057,-5.652253 -0.51164,-0.02843 -1.02105,-0.03683 -1.52928,-0.02679 z m 0.94624,12.07822 c 0.10383,0.201858 0.54656,1.425316 0.51449,3.736932 -0.066,4.7595 -1.87654,13.017203 -4.87146,22.890299 -1.19537,3.94069 -2.60138,8.22007 -4.09384,12.65576 h -44.63033 c 1.93787,-1.99854 3.88079,-3.96872 5.82323,-5.8721 10.3618,-10.153339 20.67787,-18.876277 29.34622,-24.846608 8.66833,-5.970372 16.30392,-8.616442 17.82503,-8.531971 0.1145,0.0061 0.0329,-0.02513 0.0866,-0.03231 z m -60.65111,47.350901 h 49.44902 c -5.53043,15.99055 -12.07929,34.103513 -17.528,52.194753 -2.67342,8.87651 -5.14638,17.37528 -7.40451,25.69205 h -70.99678 c 2.37312,-9.09862 5.11393,-17.34653 8.25856,-24.08396 7.74969,-16.60375 22.3163,-36.288063 38.22171,-53.802843 z m -49.319,89.988653 h 70.6761 c -3.84319,15.5523 -6.73458,30.66861 -8.32239,46.44717 H 97.908936 c 1.55519,-15.35087 3.863384,-31.5779 7.013724,-46.44717 z" />
  </g>
</svg>
